<svg xmlns="http://www.w3.org/2000/svg" viewBox="0 0 200 200" width="200" height="200" role="img" aria-label="Milk, toxic">
<title>Milk, toxic</title>
<g class="character"><g class="body"><g stroke="#3E2A1E" stroke-width="7" stroke-linejoin="round" stroke-linecap="round"><path d="M56 72 L82 32 L118 32 L144 72 Z" fill="#FFFFFF"/><rect x="56" y="72" width="88" height="92" rx="8" fill="#FFFFFF"/></g><g class="tox" opacity=".45"><g stroke="#3E2A1E" stroke-width="7" stroke-linejoin="round" stroke-linecap="round"><path d="M56 72 L82 32 L118 32 L144 72 Z" fill="#7BD65B"/><rect x="56" y="72" width="88" height="92" rx="8" fill="#7BD65B"/></g></g></g><g class="eyes"><circle cx="82" cy="110" r="8" fill="#fff" stroke="#3E2A1E" stroke-width="5.25" stroke-linecap="round" stroke-linejoin="round"/><circle cx="82" cy="110" r="3.5" fill="#3E2A1E"/><circle cx="118" cy="110" r="8" fill="#fff" stroke="#3E2A1E" stroke-width="5.25" stroke-linecap="round" stroke-linejoin="round"/><circle cx="118" cy="110" r="3.5" fill="#3E2A1E"/></g><g transform="translate(100 132)"><rect x="-13" y="0" width="26" height="12" rx="3" fill="#fff" stroke="#3E2A1E" stroke-width="5.25" stroke-linecap="round" stroke-linejoin="round"/><path d="M-4.5 0 v12 M4.5 0 v12 M-13 6 h26" fill="none" stroke="#3E2A1E" stroke-width="3"/></g><path d="M72 95 l18 8 M128 95 l-18 8" fill="none" stroke="#3E2A1E" stroke-width="7.0" stroke-linecap="round" stroke-linejoin="round"/><path class="fume" style="animation-delay:0s" d="M72 28 q6 -5 0 -10 t0 -10" fill="none" stroke="#7BD65B" stroke-width="5" stroke-linecap="round"/><path class="fume" style="animation-delay:0.6s" d="M100 28 q6 -5 0 -10 t0 -10" fill="none" stroke="#7BD65B" stroke-width="5" stroke-linecap="round"/><path class="fume" style="animation-delay:1.2s" d="M128 28 q6 -5 0 -10 t0 -10" fill="none" stroke="#7BD65B" stroke-width="5" stroke-linecap="round"/></g>
</svg>
