<svg xmlns="http://www.w3.org/2000/svg" viewBox="0 0 200 200" width="200" height="200" role="img" aria-label="Bell pepper, scared">
<title>Bell pepper, scared</title>
<g class="character"><g class="body"><g stroke="#3E2A1E" stroke-width="7" stroke-linejoin="round" stroke-linecap="round"><path d="M100 56q0-16 10-22" fill="none"/><path d="M60 70C60 50 80 46 100 56C120 46 140 50 140 70C150 110 140 160 100 164C60 160 50 110 60 70Z" fill="#F0A03C"/></g></g><g class="eyes"><circle cx="82" cy="102" r="9.5" fill="#fff" stroke="#3E2A1E" stroke-width="5.25" stroke-linecap="round" stroke-linejoin="round"/><circle cx="82" cy="102" r="2.6" fill="#3E2A1E"/><circle cx="118" cy="102" r="9.5" fill="#fff" stroke="#3E2A1E" stroke-width="5.25" stroke-linecap="round" stroke-linejoin="round"/><circle cx="118" cy="102" r="2.6" fill="#3E2A1E"/></g><g transform="translate(100 124)"><path d="M-14 4 q3.5 -6 7 0 t7 0 t7 0 t7 0" fill="none" stroke="#3E2A1E" stroke-width="5.25" stroke-linecap="round" stroke-linejoin="round"/></g><path d="M73 88 l16 -5 M127 88 l-16 -5" fill="none" stroke="#3E2A1E" stroke-width="6.12" stroke-linecap="round" stroke-linejoin="round"/></g>
</svg>
