<svg xmlns="http://www.w3.org/2000/svg" viewBox="0 0 200 200" width="200" height="200" role="img" aria-label="Salmon, happy">
<title>Salmon, happy</title>
<g class="character"><g class="body"><g stroke="#3E2A1E" stroke-width="7" stroke-linejoin="round" stroke-linecap="round"><path d="M84 150 L68 180 Q100 168 132 180 L116 150 Z" fill="#F0684A"/><path d="M58 106 L38 124 L60 132 Z" fill="#F0684A"/><path d="M142 106 L162 124 L140 132 Z" fill="#F0684A"/><path d="M100 26 C138 42 152 92 146 124 C142 150 122 160 100 160 C78 160 58 150 54 124 C48 92 62 42 100 26 Z" fill="#F58B6E"/><path d="M74 84 Q84 102 74 120" fill="none" stroke="#F0684A" stroke-width="5"/><path d="M84 142 Q100 152 116 142" fill="none" stroke="#FFE9DC" stroke-width="6"/></g></g><g class="eyes"><circle cx="82" cy="96" r="8" fill="#fff" stroke="#3E2A1E" stroke-width="5.25" stroke-linecap="round" stroke-linejoin="round"/><circle cx="82" cy="96" r="3.2" fill="#3E2A1E"/><circle cx="118" cy="96" r="8" fill="#fff" stroke="#3E2A1E" stroke-width="5.25" stroke-linecap="round" stroke-linejoin="round"/><circle cx="118" cy="96" r="3.2" fill="#3E2A1E"/></g><g transform="translate(100 118)"><path d="M-10 0 q10 10 20 0" fill="none" stroke="#3E2A1E" stroke-width="6.12" stroke-linecap="round" stroke-linejoin="round"/></g><circle cx="68" cy="112" r="6" fill="#FF8FA3"/><circle cx="132" cy="112" r="6" fill="#FF8FA3"/></g>
</svg>
